PathFileType	4	(X/Y/Z)	Patient4_TMGait_0pt7_01_right_44.trc.trc
DataRate	CameraRate	NumFrames	NumMarkers	Units	OrigDataRate	OrigDataStartFrame	OrigNumFrames
85.889570552147	85.889570552147	4	33	mm	85.889570552147	71	       141
Frame#	Time	Sacral			L.Shoulder			Chest			R.Shoulder			Neck			R.ASIS			L.ASIS			R.Thigh.Superior			R.Thigh.Lateral			R.Thigh.Inferior			R.Patella			L.Thigh.Superior			L.Thigh.Lateral			L.Thigh.Inferior			L.Patella			L.Shank.Superior			L.Shank.Lateral			L.Shank.Inferior			R.Shank.Superior			R.Shank.Lateral			R.Shank.Inferior			R.Heel			R.Midfoot.Superior			R.Midfoot.Lateral			R.Toe			L.Heel			L.Midfoot.Lateral			L.Midfoot.Superior			L.Toe			L.Elbow			L.Wrist			R.Elbow			R.Wrist			
		X1	Y1	Z1	X2	Y2	Z2	X3	Y3	Z3	X4	Y4	Z4	X5	Y5	Z5	X6	Y6	Z6	X7	Y7	Z7	X8	Y8	Z8	X9	Y9	Z9	X10	Y10	Z10	X11	Y11	Z11	X12	Y12	Z12	X13	Y13	Z13	X14	Y14	Z14	X15	Y15	Z15	X16	Y16	Z16	X17	Y17	Z17	X18	Y18	Z18	X19	Y19	Z19	X20	Y20	Z20	X21	Y21	Z21	X22	Y22	Z22	X23	Y23	Z23	X24	Y24	Z24	X25	Y25	Z25	X26	Y26	Z26	X27	Y27	Z27	X28	Y28	Z28	X29	Y29	Z29	X30	Y30	Z30	X31	Y31	Z31	X32	Y32	Z32	X33	Y33	Z33	

71	51.245000000000	839.749238090281	1007.598079669254	492.846453989278	1014.147167156312	1418.877667229771	285.348517431385	1139.689289125784	1341.035164410133	426.360891493729	1095.545576060781	1425.486465395255	608.547953096175	1046.474278562282	1479.569994033269	435.915015967027	1068.236135882859	927.378033169435	588.788672422809	1033.771900443100	943.754085275099	314.392080326677	1052.816936707866	714.571465870709	565.388037764990	942.042836948721	626.891532668487	626.941704927795	997.734085057376	557.888339862675	546.590264672353	972.930864305847	473.512731827344	549.608326661756	1106.881571427075	769.192698300601	350.199948306209	1059.858901876711	636.149793167044	274.934400045151	1164.439879828449	580.686367456312	337.408978882688	1192.906780874276	519.335089307921	336.270685730805	1183.042384474817	448.213756791385	327.117350245174	1130.784951703997	310.748579996775	281.786418379299	1230.121001727148	223.997795543559	337.021045758760	929.944750442600	392.420483232863	555.759464688625	841.130793906489	303.276230094375	618.110908276705	861.973967812989	203.175965451836	552.410576869985	702.850386202994	51.573537704003	521.868683029985	876.302204192511	96.971813507137	557.038881066196	785.866260879186	40.459968416730	595.475174689141	994.031242896578	38.369593507356	585.561509361546	1169.125955429232	40.321757562505	382.748077473284	1241.428189514756	48.211761090086	301.479954812703	1304.576314860588	131.250613257856	318.835659172758	1440.258670613408	112.220207703012	292.446623557706	833.910700594085	1113.097856707788	210.310257169992	792.329427515141	854.793762442343	223.420676416831	1269.789704769209	1133.992273882480	694.450161658267	1476.439283640025	1213.240957727753	573.000391202961	
72	51.256642857143	842.094128753307	1005.525439804050	490.090728997258	1014.312824393492	1417.446267181031	283.281507290482	1140.023264742573	1340.333758810128	424.539152480977	1094.928998197556	1424.435776832521	606.639409818965	1046.059987064600	1478.331734772322	433.932145520326	1070.040506581203	925.906212847811	587.243774961843	1037.012826853461	941.971496121962	312.668554740225	1053.480462322974	712.716758582070	564.278466609455	941.684035175232	625.776975312619	625.601011064019	997.199359859417	556.165567705270	545.544141906560	971.537739359425	471.291555084686	548.484953436714	1110.094539506688	767.062951701978	348.806010422874	1061.219078328943	633.543489471297	275.190675636624	1165.860823541179	578.237980527259	337.265703989830	1192.904338335809	515.681452385525	336.932449051043	1182.521304706676	444.287648421776	327.868645299392	1128.089114141180	307.372019317191	283.764286675345	1226.352488863546	219.669455560133	339.166121257551	927.104214579452	390.793484756268	554.765544534343	836.881740886533	303.236063049188	617.394445179721	855.946310521074	202.682529891425	552.037185511754	694.727500665489	52.588167765138	522.159696632205	868.507817506461	97.060857556464	557.050466976502	777.805068858361	40.913286186484	595.731597063293	985.979509873526	38.285534767852	585.642677845254	1162.010987453361	38.939976165739	386.202395651382	1233.493713624125	44.986524483501	303.963138701901	1299.545611435297	125.273360950311	321.365952509398	1434.236575756843	101.659622466760	293.216824829190	835.094653113362	1111.258376038528	208.148335033960	795.036819218359	852.650545517684	221.774248847140	1270.211171925937	1133.636752360899	692.189350121468	1475.080100644550	1216.440925747646	570.415417191026	
73	51.268285714286	844.509660342873	1003.448810067141	487.281849560980	1014.577397429905	1415.933137516847	280.977520156101	1140.421873075021	1339.675143736706	422.589746013727	1094.257927931641	1423.501991440518	604.566809876261	1045.692595686419	1477.148682658738	431.688770780930	1071.911383239851	924.466170667168	585.691937399277	1040.411259494079	940.286157058332	310.995277556860	1054.542464930125	710.890605567974	563.133424363955	941.901975113717	624.494729330239	624.127196828957	997.437911951563	554.354052714963	544.388550596884	971.031721047111	468.764090418202	547.311955099493	1113.656859185036	765.216682480382	347.564420258084	1063.241297149560	631.466519303188	275.240245029985	1167.815749861283	576.247400189500	337.127430047572	1193.300940633908	512.345596991851	337.497378848310	1182.372862743739	440.636365941516	328.393508233821	1125.654912745180	304.438120911813	285.118013411639	1222.434610353542	215.510912899728	340.936962463455	924.901135048783	388.983865949291	553.661987116213	833.121897129060	303.237295794329	616.585987674605	850.243410953756	202.216006915836	551.608784292672	686.641569868663	53.942697962493	522.500132870755	860.861147045104	97.154820513380	557.054495072346	769.784569994961	41.532039897203	595.992464954210	977.941395509180	38.193920208126	585.696236810830	1153.948185265522	37.925997907482	388.859966212768	1224.893460956588	42.056597324133	305.893696949976	1294.028075043288	119.359328674755	323.736649735691	1427.709005588016	90.748466324115	294.307232286116	836.984871277010	1108.871897322380	205.764160703227	798.542185085605	849.988974370712	219.834282571127	1269.821064548645	1132.799711612436	690.284665495174	1473.236450209040	1218.272607049802	568.123875240535	
74	51.279928571429	846.900157550181	1001.466396333346	484.461634664085	1014.980974266675	1414.385673716012	278.431102181790	1140.893300462348	1339.093248006287	420.527231035527	1093.552074631547	1422.759448023763	602.326023315360	1045.419720471424	1476.076575669236	429.176286311573	1073.795200914216	923.132676996417	584.154365515920	1043.883948536166	938.782291471549	309.404192872186	1056.025326066333	709.172904736364	561.949017716609	942.782364893461	623.067187402442	622.520607740722	998.573752227968	552.501398563046	543.129907739047	971.575345697762	465.946918516453	546.140933185832	1117.463569154754	763.718963389346	346.487068520291	1065.854956533761	630.018807196726	274.989956233929	1170.232847562012	574.779895612842	336.880517544303	1194.090766004479	509.501481691305	337.796685210119	1182.615313570180	437.441500047190	328.569104669143	1123.630427143381	302.080849391685	285.738800368747	1218.598446789527	211.758462809510	342.210792224234	923.459399831162	387.032421596124	552.476070611470	829.945309214210	303.364219437027	615.689991236649	844.964393991938	201.860033575973	551.137248615673	678.656998967072	55.827986521238	522.861688928575	853.438252830761	97.276084680260	557.052034088297	761.836322061427	42.434202826802	596.238854199674	969.902350742095	38.071949342820	585.707698395739	1145.443191574449	37.305496310688	390.691911937930	1216.119236242692	39.573983742767	307.240324996638	1288.283844099195	113.893314683334	325.809386124047	1420.979851281784	80.263953256251	295.607774521358	839.613082359436	1105.991681253613	203.165112392287	802.849353427485	846.866654605319	217.599528118599	1268.599633976131	1131.520889516044	688.747951522168	1470.929463525086	1218.712011468740	566.112640642330	
